# xmcd CD database file
#
# Track frame offsets:
#	150
#	1239
#	13857
#	25483
#	36394
#	49599
#	63888
#	72795
#	83936
#	94938
#	117223
#	132467
#	145727
#	157684
#	173710
#	195131
#
# Disc length: 3762 seconds
#
# Revision: 0
# Processed by: cddbd v1.5PL3 Copyright (c) Steve Scherf et al.
# Submitted via: CDex 1.50beta10
#
DISCID=c80eb010
DTITLE=Detroit Junior - Live At The Toledo Museum Of Art
DYEAR=2003
DGENRE=Blues
TTITLE0=Introduction
TTITLE1=Boogie Blues
TTITLE2=Send For Me
TTITLE3=Key To The Highway
TTITLE4=Maybelliene - Whole Lotta Shakin'
TTITLE5=Strange Thing Happen
TTITLE6=What Am I Living For
TTITLE7=One Scotch, One Bourbon, One Beer
TTITLE8=Turn Up The Heat
TTITLE9=If I Hadn't Been High
TTITLE10=Caledonia
TTITLE11=Baby What You Want Me To Do
TTITLE12=Just A Matter Of Time
TTITLE13=Everyday I Have The Blues
TTITLE14=Honest I Do
TTITLE15=Black Night
EXTD=YEAR: 2003
EXTT0=
EXTT1=
EXTT2=
EXTT3=
EXTT4=
EXTT5=
EXTT6=
EXTT7=
EXTT8=
EXTT9=
EXTT10=
EXTT11=
EXTT12=
EXTT13=
EXTT14=
EXTT15=
PLAYORDER=
